<svg width="120" height="194" viewBox="0 0 120 194" fill="none" xmlns="http://www.w3.org/2000/svg">
<path d="M59.9591 73.7047C34.1625 73.7047 10.8226 93.4412 10.8226 124.07C10.8226 143.315 25.3998 165.918 54.5541 191.796C57.5842 194.499 62.334 194.499 65.446 191.796C94.5184 165.836 109.096 143.315 109.096 124.07C109.096 93.4412 85.7558 73.7047 59.9591 73.7047ZM59.9591 135.125C53.1619 135.125 47.675 129.638 47.675 122.841C47.675 116.044 53.1619 110.557 59.9591 110.557C66.7563 110.557 72.2432 116.044 72.2432 122.841C72.2432 129.638 66.7563 135.125 59.9591 135.125Z" fill="#D7D5EF"/>
<path d="M3.04263 20.2279C-0.724495 23.3398 -1.05207 28.9905 2.38748 32.512C5.33567 35.3783 10.0036 35.7058 13.1975 33.0852C26.4037 22.2841 42.9393 16.3831 60 16.3831C77.0607 16.3831 93.5963 22.2841 106.802 33.0852C109.996 35.7058 114.664 35.4602 117.613 32.512C121.052 29.0724 120.724 23.4217 116.957 20.3097C101.479 7.61616 81.661 0 60.041 0C38.4209 0 18.6025 7.61616 3.04263 20.2279Z" fill="#D7D5EF" fill-opacity="0.3"/>
<path d="M83.5446 56.5889C86.9023 58.9638 91.3245 58.7181 94.1908 55.8518C97.7123 52.3304 97.4666 46.434 93.4538 43.5677C84.036 36.7705 72.407 32.7577 59.9591 32.7577C47.5112 32.7577 35.8822 36.7705 26.4644 43.5677C22.5335 46.434 22.2059 52.3304 25.7273 55.8518C28.5936 58.7181 33.0159 58.8819 36.3736 56.5889C43.007 51.9209 51.1964 49.1365 59.9591 49.1365C68.7218 49.1365 76.9112 51.9209 83.5446 56.5889Z" fill="#D7D5EF" fill-opacity="0.7"/>
</svg>
