<svg width="14" height="24" viewBox="0 0 14 24" fill="none" xmlns="http://www.w3.org/2000/svg">
<path d="M13.2865 0.528277C13.6248 0.866635 13.8148 1.32548 13.8148 1.80392C13.8148 2.28236 13.6248 2.74121 13.2865 3.07957L4.35521 12.0109L13.2865 20.9422C13.6152 21.2825 13.7971 21.7383 13.793 22.2114C13.7888 22.6845 13.5991 23.137 13.2646 23.4715C12.93 23.8061 12.4775 23.9958 12.0044 23.9999C11.5313 24.004 11.0755 23.8222 10.7352 23.4935L0.528277 13.2865C0.190021 12.9482 0 12.4893 0 12.0109C0 11.5325 0.190021 11.0736 0.528277 10.7352L10.7352 0.528277C11.0736 0.190021 11.5325 0 12.0109 0C12.4893 0 12.9482 0.190021 13.2865 0.528277Z" fill="#2D2B4E"/>
</svg>
